<?xml version="1.0" standalone="no"?>
<!DOCTYPE svg PUBLIC "-//W3C//DTD SVG 20010904//EN"
 "http://www.w3.org/TR/2001/REC-SVG-20010904/DTD/svg10.dtd">
<svg version="1.0" xmlns="http://www.w3.org/2000/svg"
 width="128.000000pt" height="128.000000pt" viewBox="0 0 128.000000 128.000000"
 preserveAspectRatio="xMidYMid meet">
<metadata>
Created by potrace 1.10, written by Peter Selinger 2001-2011
</metadata>
<g transform="translate(0.000000,128.000000) scale(0.050000,-0.050000)"
fill="#3b3b3b" stroke="none">
<path d="M771 2302 c-22 -25 -32 -62 -28 -104 l7 -65 -130 4 c-298 10 -300 3
-300 -970 0 -822 2 -842 87 -912 66 -52 1680 -52 1746 0 85 70 87 90 87 912 0
973 -2 980 -300 970 l-130 -4 7 65 c8 82 -43 142 -119 142 -66 0 -98 -47 -98
-144 l0 -66 -320 0 -320 0 0 66 c0 137 -107 196 -189 106z m-25 -422 c-31
-119 70 -214 163 -152 41 26 51 49 51 112 l0 80 320 0 320 0 0 -80 c0 -63 10
-86 51 -112 93 -62 194 33 163 152 -9 36 0 40 103 40 l113 0 -4 -211 -3 -210
-743 0 -743 0 -3 210 -4 211 113 0 c103 0 112 -4 103 -40z m1280 -1025 l-4
-425 -742 0 -742 0 -4 425 -4 425 750 0 750 0 -4 -425z"/>
</g>
</svg>
