<?xml version="1.0" standalone="no"?>
<!DOCTYPE svg PUBLIC "-//W3C//DTD SVG 20010904//EN"
 "http://www.w3.org/TR/2001/REC-SVG-20010904/DTD/svg10.dtd">
<svg version="1.0" xmlns="http://www.w3.org/2000/svg"
 width="128.000000pt" height="128.000000pt" viewBox="0 0 128.000000 128.000000"
 preserveAspectRatio="xMidYMid meet">
<metadata>
Created by potrace 1.10, written by Peter Selinger 2001-2011
</metadata>
<g transform="translate(0.000000,128.000000) scale(0.100000,-0.100000)"
fill="#3b3b3b" stroke="none">
<path d="M31 1187 c-8 -11 -11 -140 -9 -488 3 -455 4 -474 22 -477 10 -2 21 1
25 6 3 6 4 225 1 488 -5 477 -8 508 -39 471z"/>
<path d="M513 903 c-12 -2 -33 -16 -48 -31 -21 -21 -26 -34 -24 -69 3 -42 0
-46 -66 -113 -68 -68 -69 -69 -111 -63 -40 5 -46 3 -79 -30 -22 -22 -35 -44
-35 -62 0 -94 107 -140 172 -74 28 27 30 34 25 78 l-6 48 68 67 c63 63 69 66
95 56 15 -5 39 -7 53 -4 21 6 35 -4 94 -62 63 -63 69 -71 63 -101 -17 -92 100
-150 168 -83 26 27 29 36 26 80 -3 49 -2 50 61 114 54 54 67 63 85 56 34 -13
74 0 101 32 75 89 -39 211 -132 141 -34 -25 -50 -74 -35 -107 9 -21 4 -30 -56
-89 -64 -63 -69 -66 -104 -60 -25 3 -43 1 -54 -7 -13 -12 -25 -4 -85 56 -68
68 -69 70 -57 100 26 69 -42 141 -119 127z m57 -63 c23 -23 25 -40 8 -62 -20
-24 -44 -28 -67 -12 -27 20 -27 59 1 78 29 20 34 20 58 -4z m538 4 c28 -19 28
-58 1 -78 -28 -19 -61 -7 -74 29 -8 23 -6 30 14 46 28 23 31 23 59 3z m-824
-277 c22 -16 18 -65 -5 -80 -47 -29 -101 32 -64 73 21 23 44 25 69 7z m564 1
c15 -15 15 -61 0 -76 -26 -26 -88 0 -88 36 0 40 61 67 88 40z"/>
<path d="M30 130 c-12 -7 -12 -13 -4 -27 15 -25 164 -32 184 -8 10 12 10 18 0
30 -14 17 -155 21 -180 5z"/>
<path d="M290 125 c-10 -12 -10 -18 0 -30 18 -21 162 -21 180 0 10 12 10 18 0
30 -18 21 -162 21 -180 0z"/>
<path d="M550 125 c-10 -12 -10 -18 0 -30 18 -21 162 -21 180 0 10 12 10 18 0
30 -18 21 -162 21 -180 0z"/>
<path d="M810 125 c-10 -12 -10 -18 0 -30 9 -11 33 -15 90 -15 57 0 81 4 90
15 10 12 10 18 0 30 -9 11 -33 15 -90 15 -57 0 -81 -4 -90 -15z"/>
<path d="M1070 125 c-10 -12 -10 -18 0 -30 20 -24 169 -17 184 8 17 27 -8 37
-95 37 -56 0 -80 -4 -89 -15z"/>
</g>
</svg>
