<?xml version="1.0" standalone="no"?>
<!DOCTYPE svg PUBLIC "-//W3C//DTD SVG 20010904//EN"
 "http://www.w3.org/TR/2001/REC-SVG-20010904/DTD/svg10.dtd">
<svg version="1.0" xmlns="http://www.w3.org/2000/svg"
 width="128.000000pt" height="128.000000pt" viewBox="0 0 128.000000 128.000000"
 preserveAspectRatio="xMidYMid meet">
<metadata>
Created by potrace 1.10, written by Peter Selinger 2001-2011
</metadata>
<g transform="translate(0.000000,128.000000) scale(0.100000,-0.100000)"
fill="#3b3b3b" stroke="none">
<path d="M103 1170 c-17 -10 -37 -28 -42 -39 -7 -13 -11 -164 -11 -448 0 -475
-2 -461 66 -489 49 -21 999 -21 1048 0 68 28 66 14 66 491 0 472 2 458 -60
490 -25 13 -105 15 -532 15 -480 0 -504 -1 -535 -20z m295 -169 c9 -5 12 -31
10 -92 l-3 -84 -130 0 -130 0 -3 79 c-2 44 -1 85 2 93 4 10 34 13 123 13 65 0
124 -4 131 -9z m370 -3 c7 -7 12 -41 12 -83 0 -42 -5 -76 -12 -83 -17 -17
-239 -17 -256 0 -7 7 -12 41 -12 83 0 42 5 76 12 83 17 17 239 17 256 0z m367
-83 l0 -90 -130 0 -130 0 -3 84 c-2 61 1 87 10 93 7 4 67 7 133 6 l120 -3 0
-90z m-730 -275 l0 -85 -132 -3 -133 -3 0 91 0 91 133 -3 132 -3 0 -85z m370
0 l0 -85 -135 0 -135 0 -3 74 c-2 41 -1 80 2 88 5 11 33 13 138 11 l133 -3 0
-85z m365 0 l0 -91 -132 3 -133 3 -3 74 c-2 41 -1 80 2 88 4 10 36 13 136 13
l130 0 0 -90z m-732 -269 c2 -61 -1 -87 -10 -92 -15 -10 -219 -12 -242 -3 -13
5 -16 23 -16 88 0 46 3 86 7 90 4 3 63 5 132 4 l126 -3 3 -84z m360 77 c7 -7
12 -41 12 -83 0 -42 -5 -76 -12 -83 -17 -17 -239 -17 -256 0 -7 7 -12 41 -12
83 0 42 5 76 12 83 17 17 239 17 256 0z m370 -77 c2 -61 -1 -87 -10 -92 -15
-10 -219 -12 -242 -3 -13 5 -16 23 -16 88 0 46 3 86 7 90 4 3 63 5 132 4 l126
-3 3 -84z" />
</g>
</svg>
